# xmcd
#
# Track frame offsets: 
#        150
#        14367
#        28609
#        41990
#        54397
#        68731
#        82811
#        95439
#        109388
#        122700
#        134900
#        149594
#        163087
#        175014
#        189799
#        203743
#        217222
#        231391
#        244805
#        257761
#        269798
#        282698
#        296284
#        311383
#
# Disc length: 4277 seconds
#
# Revision: 4
# Processed by: cddbd v1.5.2PL0 Copyright (c) Steve Scherf et al.
# Submitted via: ExactAudioCopy v0.99pb3
#
DISCID=7710b318
DTITLE=Various Artist - Good for What Ails You: Music of the Medicine Shows, 
DTITLE=1926-1937, #2
DYEAR=2005
DGENRE=Folk
TTITLE0=Pink Anderson and Simmie Dooley - Gonna Tip Out Tonight
TTITLE1=Sam McGee - Chevrolet Car
TTITLE2=Gid Tanner and His Skillet Lickers - It Ain't Gonna Rain No Mo'
TTITLE3=Cannon's Jug Stompers - Bring It With You When You Come
TTITLE4=Blind Sammie - Atlanta Strut
TTITLE5=Uncle Dave Macon and His Fruit Jar Drinkers - Go Along Mule
TTITLE6=Earl McDonald's Original Louisville Jug Band - Casey Bill
TTITLE7=Frank Stokes - I Got Mine
TTITLE8=Chris Bouchillon - Hannah
TTITLE9=Bogus Ben Covington - Adam and Eve in the Garden
TTITLE10=Alec Johnson and His Band - Mysterious Coon
TTITLE11=Carolina Tar Heels - Her Name was Hula Lou
TTITLE12=Three Tobacco Tags - Reno Blues
TTITLE13=Papa Charlie Jackson - Scoodle Um Skoo
TTITLE14=Frank Hutchison - Stackalee
TTITLE15=Walter Smith - The Cat's Got the Measles, the Dog's Got the W
TTITLE15=hooping Cough
TTITLE16=Hezekiah Jenkins - Shout You Cats
TTITLE17=Tommie Bradley - Nobody's Business if I Do
TTITLE18=Charlie Poole with The North Carolina Ramblers - Sweet Sixtee
TTITLE18=n
TTITLE19=Charlie Parker and Mack Woolbright - Ticklish Reuben
TTITLE20=Jim Jackson - I Heard the Voice of a Porkchop
TTITLE21=Dallas String Band with Coley Jones - Shine
TTITLE22=Emmett Miller and His Georgia Crackers - The Gypsy
TTITLE23=J. E. Mainer's Mountaineers - Kiss Me Cindy
EXTD=YEAR: 2005
EXTT0=
EXTT1=
EXTT2=
EXTT3=
EXTT4=
EXTT5=
EXTT6=
EXTT7=
EXTT8=
EXTT9=
EXTT10=
EXTT11=
EXTT12=
EXTT13=
EXTT14=
EXTT15=
EXTT16=
EXTT17=
EXTT18=
EXTT19=
EXTT20=
EXTT21=
EXTT22=
EXTT23=
PLAYORDER=
